<svg width="120px" height="120px" viewBox="-102.4 -102.4 1228.80 1228.80" class="icon" version="1.1" xmlns="http://www.w3.org/2000/svg" fill="#000000" stroke="#000000">
    <g id="SVGRepo_bgCarrier" stroke-width="0">
        <path transform="translate(-102.4, -102.4), scale(76.8)" fill="#f50000" d="M9.166.33a2.25 2.25 0 00-2.332 0l-5.25 3.182A2.25 2.25 0 00.5 5.436v5.128a2.25 2.25 0 001.084 1.924l5.25 3.182a2.25 2.25 0 002.332 0l5.25-3.182a2.25 2.25 0 001.084-1.924V5.436a2.25 2.25 0 00-1.084-1.924L9.166.33z"
        />
    </g>
    <g id="SVGRepo_iconCarrier">
        <path d="M396.8 800c-108.8 0-192-89.6-192-192 0-51.2 19.2-102.4 57.6-134.4 6.4-6.4 6.4-6.4 12.8 0s6.4 6.4 0 12.8c-32 32-51.2 76.8-51.2 121.6 0 96 76.8 179.2 179.2 179.2 57.6 0 108.8-25.6 140.8-70.4 0-6.4 6.4-6.4 12.8 0 6.4 0 6.4 6.4 0 12.8-38.4 44.8-96 70.4-160 70.4z" fill="#2bff00"/>
        <path d="M396.8 614.4m-121.6 0a121.6 121.6 0 1 0 243.2 0 121.6 121.6 0 1 0-243.2 0Z" fill="#2bff00"/>
        <path d="M300.8 460.8h-6.4V448l172.8-153.6h12.8v12.8L300.8 460.8c6.4 0 0 0 0 0zM582.4 691.2c-6.4-6.4-6.4-12.8-6.4-12.8l140.8-128c6.4-6.4 6.4 0 12.8 0 6.4 6.4 0 6.4 0 12.8l-147.2 128c6.4 0 6.4 0 0 0zM473.6 428.8h-6.4v-12.8l204.8-179.2h12.8v12.8L473.6 428.8c6.4 0 6.4 0 0 0zM582.4 576H576v-12.8l198.4-172.8h12.8v12.8L582.4 576zM544 473.6h-6.4v-12.8l262.4-230.4h12.8v12.8L544 473.6c6.4 0 6.4 0 0 0z"
              fill="#2bff00"/>
    </g>
</svg>